<svg height="512pt" viewBox="0 -56 512 512" width="512pt" xmlns="http://www.w3.org/2000/svg"><path d="m512 336v-328c0-4.425781-3.585938-8-8-8h-216c-13.128906 0-24.703125 6.449219-32 16.246094-7.296875-9.796875-18.871094-16.246094-32-16.246094h-216c-4.414062 0-8 3.574219-8 8v328c0 4.425781 3.585938 8 8 8h216c13.230469 0 24 10.769531 24 24v9.046875l-11.558594-7.703125c-1.3125-.871094-2.867187-1.34375-4.441406-1.34375h-216v-8h-16v16c0 4.425781 3.585938 8 8 8h221.574219l21.984375 14.65625c.273437.183594.585937.265625.875.40625.261718.136719.511718.273438.789062.378906.90625.335938 1.832032.558594 2.777344.558594s1.871094-.222656 2.769531-.558594c.277344-.105468.527344-.242187.789063-.378906.289062-.140625.601562-.222656.875-.40625l21.992187-14.65625h221.574219c4.414062 0 8-3.574219 8-8v-16h-16v8h-216c-1.574219 0-3.128906.472656-4.441406 1.34375l-11.558594 7.703125v-9.046875c0-13.230469 10.769531-24 24-24h160v-16h-160c-9.039062 0-17.296875 3.128906-24 8.207031v-296.207031c0-13.230469 10.769531-24 24-24h8v64c0 2.953125 1.625 5.664062 4.222656 7.054688 2.59375 1.386718 5.753906 1.226562 8.210938-.398438l19.566406-13.039062 19.558594 13.039062c1.34375.886719 2.890625 1.34375 4.441406 1.34375 1.296875 0 2.59375-.3125 3.777344-.945312 2.597656-1.390626 4.222656-4.101563 4.222656-7.054688v-64h136v312h-32v16h40c4.414062 0 8-3.574219 8-8zm-288-8h-208v-312h208c13.230469 0 24 10.769531 24 24v296.015625c-6.6875-5.03125-15-8.015625-24-8.015625zm120-262.945312-11.558594-7.710938c-1.34375-.894531-2.898437-1.34375-4.441406-1.34375s-3.097656.449219-4.441406 1.34375l-11.558594 7.710938v-49.054688h32zm0 0"/><path d="m296 120h128v16h-128zm0 0"/><path d="m32 248h96v16h-96zm0 0"/><path d="m296 168h48v16h-48zm0 0"/><path d="m360 168h112v16h-112zm0 0"/><path d="m392 216h80v16h-80zm0 0"/><path d="m296 216h80v16h-80zm0 0"/><path d="m32 288h48v16h-48zm0 0"/><path d="m96 288h136v16h-136zm0 0"/><path d="m440 264h32v16h-32zm0 0"/><path d="m296 264h128v16h-128zm0 0"/><path d="m144 248h88v16h-88zm0 0"/><path d="m440 120h32v16h-32zm0 0"/><path d="m224 32h-184c-4.414062 0-8 3.574219-8 8v176c0 4.425781 3.585938 8 8 8h184c4.414062 0 8-3.574219 8-8v-176c0-4.425781-3.585938-8-8-8zm-8 16v88h-62.496094c-3.175781 0-6.054687 1.878906-7.328125 4.800781l-15.40625 35.199219h-82.769531v-128zm0 160h-168v-16h88c3.175781 0 6.054688-1.878906 7.328125-4.800781l15.398437-35.199219h57.273438zm0 0"/><path d="m100 120c15.441406 0 28-12.558594 28-28s-12.558594-28-28-28-28 12.558594-28 28 12.558594 28 28 28zm0-40c6.617188 0 12 5.382812 12 12s-5.382812 12-12 12-12-5.382812-12-12 5.382812-12 12-12zm0 0"/><path d="m168 72h32v16h-32zm0 0"/><path d="m136 104h32v16h-32zm0 0"/><path d="m424 32h48v16h-48zm0 0"/></svg>